<svg width="163.735009765625px" height="121.40498046875px" xmlns="http://www.w3.org/2000/svg" viewBox="168.1324951171875 14.297509765625001 163.735009765625 121.40498046875" style="background: rgba(0, 0, 0, 0);" preserveAspectRatio="xMidYMid"><defs><linearGradient id="editing-outline-gradient" x1="-0.41354545764260087" x2="1.4135454576426008" y1="0.09326335692419985" y2="0.9067366430758002"><stop offset="0" stop-color="#ee4208"></stop><stop offset="1" stop-color="#4139ff"></stop></linearGradient><filter id="editing-outline" x="-100%" y="-100%" width="300%" height="300%"><feMorphology in="SourceGraphic" operator="dilate" radius="1" result="outline"></feMorphology><feComposite operator="out" in="outline" in2="SourceAlpha"></feComposite></filter></defs><g filter="url(#editing-outline)"><g transform="translate(197.4249999821186, 97.39999961853027)"><path d="M0.45-0.32L0.45-0.32L8.51-42.24L8.51-42.24Q16.06-42.88 20.93-42.88L20.93-42.88L20.93-42.88Q25.79-42.88 28.93-42.46L28.93-42.46L28.93-42.46Q32.06-42.05 34.18-40.96L34.18-40.96L34.18-40.96Q38.40-38.91 38.40-33.28L38.40-33.28L38.40-33.28Q38.40-30.02 35.58-27.26L35.58-27.26L35.58-27.26Q32.96-24.77 30.08-24.19L30.08-24.19L30.08-24.19Q33.15-23.68 35.33-21.38L35.33-21.38L35.33-21.38Q37.63-18.94 37.63-15.17L37.63-15.17L37.63-15.17Q37.63-7.87 32.19-3.62L32.19-3.62L32.19-3.62Q26.75 0.64 16.06 0.64L16.06 0.64L16.06 0.64Q8.70 0.64 0.45-0.32ZM17.86-20.61L14.66-4.03L14.66-4.03Q15.23-3.97 15.36-3.97L15.36-3.97L15.94-3.97L15.94-3.97Q21.18-3.97 23.42-7.42L23.42-7.42L23.42-7.42Q25.09-10.11 25.09-15.04L25.09-15.04L25.09-15.04Q25.09-17.66 23.39-19.07L23.39-19.07L23.39-19.07Q21.70-20.48 17.86-20.61L17.86-20.61ZM27.58-33.22L27.58-33.22L27.58-33.22Q27.58-38.53 22.46-38.53L22.46-38.53L21.89-38.53L21.89-38.53Q21.63-38.53 21.25-38.46L21.25-38.46L18.69-24.96L19.33-24.96L19.33-24.96Q27.58-25.15 27.58-33.22ZM55.10 0L41.15 0L49.28-42.24L63.36-42.24L55.10 0ZM90.69-20.61L103.62-21.76L103.62-21.76Q99.01-11.65 99.01 0.06L99.01 0.06L99.01 0.06Q97.28 1.28 94.75 1.28L94.75 1.28L94.75 1.28Q92.22 1.28 90.62 0.10L90.62 0.10L90.62 0.10Q89.02-1.09 88.70-2.30L88.70-2.30L88.70-2.30Q87.10-0.64 84.51 0.32L84.51 0.32L84.51 0.32Q81.92 1.28 79.17 1.28L79.17 1.28L79.17 1.28Q76.42 1.28 74.02 0.38L74.02 0.38L74.02 0.38Q71.62-0.51 69.76-2.50L69.76-2.50L69.76-2.50Q65.66-6.85 65.66-15.10L65.66-15.10L65.66-15.10Q65.66-27.90 72.51-35.58L72.51-35.58L72.51-35.58Q79.55-43.52 92.03-43.52L92.03-43.52L92.03-43.52Q100.67-43.52 103.74-39.04L103.74-39.04L103.74-39.04Q104.70-37.63 104.70-35.94L104.70-35.94L104.70-35.94Q104.70-34.24 103.97-32.80L103.97-32.80L103.97-32.80Q103.23-31.36 102.08-30.21L102.08-30.21L102.08-30.21Q99.33-27.65 95.94-27.65L95.94-27.65L95.94-27.65Q94.59-27.65 93.31-28.10L93.31-28.10L93.31-28.10Q93.57-30.02 93.57-32.26L93.57-32.26L93.57-32.26Q93.57-34.50 93.41-35.52L93.41-35.52L93.41-35.52Q93.25-36.54 92.86-37.38L92.86-37.38L92.86-37.38Q92.03-39.10 90.21-39.10L90.21-39.10L90.21-39.10Q88.38-39.10 86.37-37.15L86.37-37.15L86.37-37.15Q84.35-35.20 82.75-32L82.75-32L82.75-32Q79.23-24.83 79.23-16.19L79.23-16.19L79.23-16.19Q79.23-12.22 80.77-9.41L80.77-9.41L80.77-9.41Q82.43-6.34 85.38-6.34L85.38-6.34L85.38-6.34Q86.40-6.34 87.33-6.85L87.33-6.85L87.33-6.85Q88.26-7.36 88.64-7.74L88.64-7.74L90.69-20.61Z" fill="url(#editing-outline-gradient)"></path></g></g><style>text {
  font-size: 64px;
  font-family: Arial Black;
  dominant-baseline: central;
  text-anchor: middle;
}</style></svg>