<?xml version="1.0" encoding="UTF-8" standalone="no"?>
<!-- Created with Inkscape (http://www.inkscape.org/) -->

<svg
   width="16.0px"
   height="16.0px"
   viewBox="0 0 16.0 16.0"
   version="1.1"
   id="SVGRoot"
   sodipodi:docname="BSLogoEdit.svg"
   inkscape:export-filename="bitmap.png"
   inkscape:export-xdpi="96"
   inkscape:export-ydpi="96"
   inkscape:version="1.2.1 (9c6d41e4, 2022-07-14)"
   xml:space="preserve"
   xmlns:inkscape="http://www.inkscape.org/namespaces/inkscape"
   xmlns:sodipodi="http://sodipodi.sourceforge.net/DTD/sodipodi-0.dtd"
   xmlns:xlink="http://www.w3.org/1999/xlink"
   xmlns="http://www.w3.org/2000/svg"
   xmlns:svg="http://www.w3.org/2000/svg"><sodipodi:namedview
     id="namedview2930"
     pagecolor="#ffffff"
     bordercolor="#000000"
     borderopacity="0.25"
     inkscape:showpageshadow="2"
     inkscape:pageopacity="0.0"
     inkscape:pagecheckerboard="0"
     inkscape:deskcolor="#d1d1d1"
     inkscape:document-units="px"
     showgrid="true"
     inkscape:zoom="0.23896704"
     inkscape:cx="3282.8795"
     inkscape:cy="1071.2774"
     inkscape:window-width="1198"
     inkscape:window-height="694"
     inkscape:window-x="43"
     inkscape:window-y="23"
     inkscape:window-maximized="0"
     inkscape:current-layer="layer1"><inkscape:grid
       type="xygrid"
       id="grid3416" /></sodipodi:namedview><defs
     id="defs2925"><linearGradient
       inkscape:collect="always"
       id="linearGradient1022"><stop
         style="stop-color:#26800f;stop-opacity:1;"
         offset="0"
         id="stop1018" /><stop
         style="stop-color:#629415;stop-opacity:1;"
         offset="0.23799434"
         id="stop1030" /><stop
         style="stop-color:#6bc708;stop-opacity:1;"
         offset="0.64548022"
         id="stop1026" /><stop
         style="stop-color:#26800f;stop-opacity:1;"
         offset="0.85593218"
         id="stop1020" /></linearGradient><linearGradient
       inkscape:collect="always"
       id="linearGradient1014"><stop
         style="stop-color:#0d330a;stop-opacity:1;"
         offset="0"
         id="stop1010" /><stop
         style="stop-color:#2a4008;stop-opacity:1;"
         offset="1"
         id="stop1012" /></linearGradient><linearGradient
       inkscape:collect="always"
       id="linearGradient910"><stop
         style="stop-color:#2a4007;stop-opacity:1;"
         offset="0"
         id="stop906" /><stop
         style="stop-color:#0d330a;stop-opacity:1;"
         offset="0.66101694"
         id="stop908" /></linearGradient><linearGradient
       inkscape:collect="always"
       xlink:href="#linearGradient910"
       id="linearGradient912"
       x1="3585.3027"
       y1="345.52322"
       x2="4247.7002"
       y2="1517.2329"
       gradientUnits="userSpaceOnUse" /><linearGradient
       inkscape:collect="always"
       xlink:href="#linearGradient1014"
       id="linearGradient1016"
       x1="2902.0907"
       y1="1090.9362"
       x2="3975.3919"
       y2="1090.9362"
       gradientUnits="userSpaceOnUse" /><linearGradient
       inkscape:collect="always"
       xlink:href="#linearGradient1022"
       id="linearGradient1024"
       x1="3040.9298"
       y1="1123.4861"
       x2="4111.0615"
       y2="1123.4861"
       gradientUnits="userSpaceOnUse" /></defs><g
     inkscape:label="Layer 1"
     inkscape:groupmode="layer"
     id="layer1"><g
       id="g1035"><path
         style="fill:url(#linearGradient912);stroke-width:1.50466;fill-opacity:1"
         d="m 4009.4662,1659.2687 c 0.2758,-0.6478 7.2725,-7.4996 15.5481,-15.2262 303.1547,-283.0438 264.3444,-834.83436 -76.7375,-1091.02731 -196.483,-147.58203 -486.7091,-182.2191 -724.2483,-86.43553 -21.8764,8.82126 -11.0323,0.17464 27.5811,-21.99206 432.9596,-248.54789 993.813,37.14954 1056.171,538.01108 31.2994,251.39732 -45.508,481.14642 -205.2765,614.03082 -31.9468,26.5712 -96.0601,69.7364 -93.0379,62.6392 z"
         id="path878" /><path
         style="fill:url(#linearGradient1024);stroke-width:1.50466;fill-opacity:1"
         d="m 3797.8581,1704.3642 c 0.8017,-0.7032 9.5828,-4.5263 19.5135,-8.4958 242.7475,-97.0295 308.4549,-356.5026 114.9201,-453.81 -40.5014,-20.3637 -73.6232,-20.08 -118.1179,1.0115 -37.0324,17.5542 -60.7756,5.1842 -47.2487,-24.6162 5.3779,-11.8478 -136.5425,-3.8253 -198.3942,11.2148 -6.0709,1.4762 -3.2048,-1.4774 17.1235,-17.6468 174.4309,-138.744 240.5751,-368.00018 160.7424,-557.13378 -8.4239,-19.95723 -9.0698,-19.86862 -3.3482,0.45934 28.2965,100.53283 18.3048,244.82193 -22.7657,328.75608 -123.1917,251.76236 -526.6717,404.25056 -533.492,201.62406 -1.6655,-49.4807 24.2116,-99.7557 65.7404,-127.7228 10.8122,-7.2813 7.9439,-6.8247 -8.1811,1.3026 -36.4781,18.3855 -62.1023,47.3222 -76.9725,86.9229 -3.2103,8.5493 -3.6151,8.5995 -14.8283,1.8381 -138.6777,-83.6216 -151.6736,-306.74426 -19.0649,-327.31919 50.0656,-7.76794 86.8389,17.16285 139.9676,94.89245 64.1067,93.79084 100.6613,114.02984 186.1102,103.04284 152.5234,-19.61155 221.1649,-123.16244 198.9646,-300.15289 -14.9448,-119.14571 0.3229,-162.36082 61.9973,-175.48308 167.3199,-35.60009 313.3521,309.59536 215.1063,508.47457 -5.6698,11.4772 -6.5569,14.1725 -4.0723,12.3719 51.9343,-37.6365 97.0478,6.5143 62.2216,60.894 -11.8116,18.4434 -0.9141,43.4057 30.8237,70.6059 146.598,125.6391 100.1076,367.8104 -89.1163,464.2124 -38.4253,19.5761 -150.4569,56.0089 -137.6291,44.7571 z"
         id="path876" /><path
         style="fill:url(#linearGradient1016);stroke-width:1.50466;fill-opacity:1"
         d="m 3503.6506,1708.4444 c -171.9187,-12.1817 -334.991,-93.9178 -443.6222,-222.3547 -8.0002,-9.4589 -16.4308,-19.2942 -18.7346,-21.8564 -81.053,-90.1403 -143.041,-279.4058 -139.0179,-424.4577 8.451,-304.69125 178.7127,-511.97679 463.4226,-564.19499 31.3368,-5.74743 33.7494,-5.00821 11.5609,3.54219 -335.8666,129.42724 -487.4822,519.18539 -326.6686,839.7667 171.119,341.1252 610.8716,442.9499 912.4818,211.2851 14.8616,-11.4151 15.2846,-11.2412 6.5517,2.6938 -70.464,112.4379 -274.1113,189.171 -465.9737,175.576 z"
         id="path872" /></g></g></svg>
