<?xml version="1.0" encoding="UTF-8" standalone="no"?>
<!-- Created with Inkscape (http://www.inkscape.org/) -->

<svg
   width="16.0px"
   height="16.0px"
   viewBox="0 0 16.0 16.0"
   version="1.1"
   id="SVGRoot"
   sodipodi:docname="SSthankyou.svg"
   xml:space="preserve"
   inkscape:version="1.2.1 (9c6d41e4, 2022-07-14)"
   inkscape:export-filename="SSthankyou.png"
   inkscape:export-xdpi="96"
   inkscape:export-ydpi="96"
   xmlns:inkscape="http://www.inkscape.org/namespaces/inkscape"
   xmlns:sodipodi="http://sodipodi.sourceforge.net/DTD/sodipodi-0.dtd"
   xmlns:xlink="http://www.w3.org/1999/xlink"
   xmlns="http://www.w3.org/2000/svg"
   xmlns:svg="http://www.w3.org/2000/svg"><sodipodi:namedview
     id="namedview137"
     pagecolor="#ffffff"
     bordercolor="#000000"
     borderopacity="0.25"
     inkscape:showpageshadow="2"
     inkscape:pageopacity="0.0"
     inkscape:pagecheckerboard="0"
     inkscape:deskcolor="#d1d1d1"
     inkscape:document-units="px"
     showgrid="true"
     inkscape:zoom="0.22060096"
     inkscape:cx="-106.52719"
     inkscape:cy="1368.9877"
     inkscape:window-width="1152"
     inkscape:window-height="716"
     inkscape:window-x="93"
     inkscape:window-y="441"
     inkscape:window-maximized="0"
     inkscape:current-layer="layer1"><inkscape:grid
       type="xygrid"
       id="grid260" /></sodipodi:namedview><defs
     id="defs132"><linearGradient
       inkscape:collect="always"
       id="linearGradient1086"><stop
         style="stop-color:#0d330a;stop-opacity:1;"
         offset="0"
         id="stop1082" /><stop
         style="stop-color:#629415;stop-opacity:1;"
         offset="1"
         id="stop1084" /></linearGradient><linearGradient
       inkscape:collect="always"
       xlink:href="#linearGradient1086"
       id="linearGradient1088"
       x1="-217.97824"
       y1="859.7251"
       x2="-216.02937"
       y2="1580.4835"
       gradientUnits="userSpaceOnUse" /></defs><g
     inkscape:label="Layer 1"
     inkscape:groupmode="layer"
     id="layer1"><path
       style="fill:url(#linearGradient1088);stroke-width:4.56547;fill-opacity:1"
       d="m -55.683578,1574.0172 c -13.026596,-9.459 -12.995414,-22.8423 0.113681,-48.7359 10.385932,-20.5148 10.385932,-20.5148 -26.841832,-28.677 -20.475251,-4.4892 -50.997441,-8.4461 -67.827021,-8.793 -29.13284,-0.6008 -31.23779,0.083 -43.92289,14.2788 -18.30752,20.487 -17.50126,34.4038 2.6555,45.834 7.06479,4.0062 7.48316,5.2092 1.84897,5.3166 -19.83202,0.378 -29.24619,-33.7006 -14.9487,-54.1132 8.62338,-12.3116 32.42896,-23.3609 50.33093,-23.3609 12.41446,0 12.41446,0 -0.99472,-14.2842 -7.37506,-7.8564 -21.42168,-20.1832 -31.21469,-27.3928 -29.36608,-21.6195 -72.02643,-15.591 -77.13528,10.9003 -1.94265,10.0733 -1.98292,10.079 -2.59501,0.3657 -0.37848,-6.006 5.10154,-14.6822 14.00584,-22.1747 12.31092,-10.359 17.74711,-11.9567 34.32454,-10.0882 10.83335,1.2211 27.8241,7.5984 37.75722,14.1719 18.06022,11.9517 18.06022,11.9517 13.61286,0.2542 -7.30597,-19.2161 -5.34022,-26.9874 14.24558,-56.3174 22.15935,-33.1838 38.42259,-49.9414 59.449891,-61.2567 10.461035,-5.6294 12.501022,-6.0026 6.318239,-1.1561 -5.022012,3.9367 -19.12245,16.9229 -31.33434,28.8582 -53.28414,52.0777 -51.40513,101.0803 4.9722,129.6688 44.917837,22.7774 101.156655,20.6485 152.982773,-5.7912 16.85172,-8.5971 18.17671,-10.3056 10.27891,-13.2537 -24.856216,-9.2785 -35.542327,-46.598 -18.10065,-63.2136 7.30379,-6.9579 7.48266,-6.7918 2.71924,2.5244 -11.79178,23.0623 -0.23695,51.6616 20.87267,51.6616 29.98944,0 61.355827,-35.4476 86.856057,-98.1575 17.04785,-41.9239 19.42263,-58.2033 4.81332,-32.9964 -17.19564,29.6695 -65.368377,34.9574 -85.484737,9.3836 -11.70648,-14.8823 -11.77232,-27.109 -0.2479,-46.0106 11.01135,-18.0599 15.73004,-19.6783 6.65563,-2.2827 -15.37676,29.4771 -1.80907,53.4367 30.25972,53.4367 12.394827,0 20.991327,-3.1172 28.042687,-10.1685 5.59269,-5.5927 7.77877,-10.1686 4.85797,-10.1686 -2.9208,0 -6.58029,2.0545 -8.13219,4.5655 -3.79303,6.1373 -19.23613,5.8107 -23.12961,-0.4891 -2.099697,-3.3973 0.0411,-4.0503 6.52689,-1.9915 7.03652,2.2332 12.64346,-0.1662 20.69858,-8.8578 17.13118,-18.4848 24.46656,-37.5997 43.86573,-114.3075 9.89555,-39.1289 19.17819,-73.0628 20.62809,-75.4088 1.44986,-2.3459 -4.6165,-10.6332 -13.48086,-18.4162 -18.3865,-16.1436 -43.22939,-55.629 -55.17228,-87.69099 -9.49712,-25.4962 -5.19668,-41.1379 13.67407,-49.736 16.70102,-7.6095 30.94341,5.8269 27.21917,25.6787 -1.7336,9.2411 0.7702,22.9717 7.14509,39.18289 9.70134,24.6704 29.39457,54.8075 35.57721,54.445 1.75547,-0.103 7.73203,-9.8893 13.28126,-21.7475 5.54924,-11.8582 22.72657,-38.5001 38.17182,-59.20409 28.66514,-38.4251 43.72341,-48.3698 56.8037,-37.5142 12.57101,10.433 7.73043,27.8245 -15.1363,54.38219 -51.13837,59.3929 -67.19502,95.4315 -94.07201,211.1413 -19.25051,82.8767 -33.24736,125.9709 -52.87663,162.7991 -26.56731,49.8455 -38.65251,60.4106 -143.6462917,125.5795 -27.3530743,16.9778 -34.1253033,28.9458 -19.8173163,35.0215 10.47212827,4.4467 10.47212827,4.4467 -0.894877,3.3509 -15.096716,-1.4555 -17.182769,-14.7452 -4.918468,-31.3335 14.3655123,-19.4304 1.776514,-16.166 -18.055639,4.6819 -22.348685,23.4934 -26.85836,40.8448 -13.439726,51.7105 11.6523,9.4355 20.297466,9.9649 48.16031927,2.9489 11.96174773,-3.012 24.13040273,-9.8772 29.41447173,-16.5949 6.27469,-7.9769 9.0125,-9.3032 9.0125,-4.366 0,21.0253 -73.246453,39.511 -94.733406,23.9085 z M 703.32506,1402.9687 c -11.66285,-4.7736 -23.15622,-17.927 -27.16895,-31.0932 -3.97305,-13.036 8.13292,-55.348 20.23912,-70.7386 10.3138,-13.1118 11.97102,-19.3635 3.79317,-14.3093 -2.9807,1.8422 -30.54661,4.6979 -61.25759,6.3461 -63.75325,3.4214 -79.41791,9.6075 -79.41791,31.3627 0,18.7123 18.19936,43.634 33.13628,45.3757 9.78142,1.1406 14.18367,-1.661 21.52142,-13.6964 5.07356,-8.3216 9.23238,-11.9194 9.24174,-7.9949 0.009,3.9245 -6.01258,12.9122 -13.3822,19.9727 -9.99326,9.5742 -16.20357,12.1335 -24.43141,10.0685 -16.33811,-4.1006 -37.292,-36.8713 -37.292,-58.3225 0,-9.7133 -1.22939,-17.6605 -2.73202,-17.6605 -1.50263,0 -7.62305,5.2062 -13.60093,11.5693 -9.62893,10.2496 -10.27138,13.1524 -5.6315,25.4449 4.50187,11.9267 4.31359,13.1087 -1.3406,8.4162 -9.62191,-7.9855 -8.07125,-31.8388 2.82374,-43.4359 9.4017,-10.0077 9.4017,-10.0077 -5.70684,-12.7933 -22.1699,-4.0877 -145.60502,-4.8854 -158.9207,-1.0271 -32.08408,9.2964 -37.85931,13.6741 -48.28971,36.6033 -8.31147,18.2711 -10.58727,20.7507 -10.7813,11.7463 -0.33647,-15.6257 14.90369,-39.2917 30.33496,-47.1056 23.40514,-11.8516 48.40859,-13.632 179.39641,-12.774 144.56154,0.9469 185.33407,-3.3859 229.79645,-24.42 14.26366,-6.7478 30.89565,-18.7896 36.95996,-26.7597 12.30046,-16.1659 21.17038,-43.1485 12.40282,-37.7299 -2.87721,1.7783 -5.2313,6.0445 -5.2313,9.4806 0,13.2912 -23.01926,25.2006 -47.41172,24.5291 -23.35299,-0.6428 -23.35299,-0.6428 1.16351,-3.6024 70.28594,-8.4851 45.29403,-90.2496 -30.32277,-99.2053 -32.63377,-3.865 -38.63703,1.301 -55.14703,47.4558 -13.28126,37.1286 -34.62103,69.6911 -45.67196,69.6911 -4.90733,0 -26.11871,-23.8637 -29.06335,-32.6976 -1.32266,-3.9679 -6.06444,-2.6632 -15.97922,4.3968 -29.61179,21.0854 -72.09057,7.7324 -88.18429,-27.7204 -22.51994,-49.6091 -0.52791,-167.2947 29.13538,-155.9118 9.42445,3.6165 9.084,7.1662 -5.65706,58.99 -11.67997,41.0623 -11.87674,66.6985 -0.6803,88.6454 13.25957,25.9908 34.87449,30.7358 62.43077,13.7052 14.2958,-8.8353 15.37663,-11.1863 15.37663,-33.4463 0,-33.7488 12.91433,-121.812 18.92573,-129.0553 2.76078,-3.3265 7.74768,-6.0483 11.08193,-6.0483 12.05073,0 14.47906,14.2687 8.06156,47.3686 -16.46101,84.9014 -18.41238,143.0849 -4.64883,138.6123 7.2065,-2.3419 24.66324,-34.2648 34.91321,-63.8455 11.29446,-32.595 28.68692,-44.5225 64.92193,-44.5225 33.48764,0 55.55519,10.6182 80.15916,38.5697 23.85648,27.1024 31.85047,54.2766 22.52944,76.585 -7.859,18.8093 -44.22243,54.1793 -61.8139,60.1253 -33.41158,11.2933 -64.43753,53.4106 -64.51623,87.5798 -0.1146,49.7861 59.94657,52.5665 80.35593,3.72 9.07396,-21.717 7.86087,-36.4924 -3.92721,-47.8342 -6.11553,-5.884 -7.50111,-9.0408 -3.4241,-7.8014 24.17633,7.3501 23.01328,57.0203 -1.95511,83.4945 -15.61371,16.5553 -33.80833,20.4169 -55.11321,11.697 z m -1363.94662,-126.194 c -1.57695,-1.577 -1.67904,-30.8959 -0.2269,-65.153 2.7989,-66.0262 -3.04174,-119.0981 -14.86187,-135.0445 -6.19963,-8.3638 -7.38683,-8.445 -21.94688,-1.5018 -8.46601,4.0372 -23.09317,16.7376 -32.50479,28.2233 -17.11205,20.883 -17.11205,20.883 -15.29887,66.0267 1.17478,29.2484 4.02669,47.8107 8.09968,52.7184 7.21828,8.6974 0.23786,19.652 -8.91713,13.9939 -20.65987,-12.7686 -30.25182,-97.8743 -20.48063,-181.7168 3.80623,-32.66 6.05385,-60.24829 4.99462,-61.30749 -1.05919,-1.0592 -6.05504,0.2841 -11.10189,2.985 -11.87071,6.35309 -35.08305,7.75369 -56.66382,3.4193 -17.12049,-3.4387 -17.12049,-3.4387 -17.16058,13.88869 -0.0877,37.8144 -9.33081,143.0576 -15.84573,180.4168 -8.8827,50.9374 -14.11336,61.7161 -35.15992,72.4532 -17.28816,8.8198 -17.28816,8.8198 -35.62406,-7.7456 -10.08471,-9.111 -18.33587,-19.2368 -18.33587,-22.5019 0,-10.0042 10.6832,-10.562 25.98098,-1.3565 13.93573,8.3859 14.75332,8.4106 18.85765,0.5712 13.70735,-26.1817 22.8806,-137.7764 17.05959,-207.5335 -2.98312,-35.74839 -4.27748,-39.79259 -13.4741,-42.10089 -39.71261,-9.9672 -103.25692,58.85119 -85.30816,92.38869 3.55851,6.6492 3.68979,9.8042 0.40795,9.8042 -7.93186,0 -14.56751,-23.8545 -11.37278,-40.8839 4.50979,-24.0392 14.95893,-41.6216 37.16574,-62.53749 l 20.13057,-18.9604 -31.2832,-5.5906 c -29.00284,-5.1831 -32.91064,-4.8707 -53.61014,4.2857 -22.327,9.8762 -22.327,9.8762 -11.1056,-2.2676 11.2213,-12.1438 11.2213,-12.1438 -0.1923,-8.7701 -37.1675,10.9862 -66.2323,40.9954 -54.0274,55.78299 5.157,6.2483 5.0408,7.0363 -0.7582,5.143 -13.1059,-4.2791 -10.542,-24.71689 5.3749,-42.84529 15.0245,-17.1121 15.0245,-17.1121 -7.5508,-13.7267 -53.97,8.0933 -103.7922,36.6974 -111.3038,63.90209 -2.4339,8.815 -3.5195,20.6994 -2.4123,26.41 1.8337,9.4582 1.5673,9.3665 -2.9915,-1.0309 -6.382,-14.5553 -2.2507,-35.6291 9.4202,-48.05219 9.0983,-9.6846 9.0983,-9.6846 -12.6253,-9.4542 -32.8914,0.349 -71.3111,-22.0355 -55.0597,-32.0794 3.0465,-1.8828 3.7881,-1.0578 1.8573,2.0663 -4.764,7.7082 24.2036,23.5803 42.8925,23.5017 8.7886,-0.037 31.0769,-6.9945 49.5297,-15.4614 l 33.5506,-15.3943 -27.8317,-3.2303 c -34.9619,-4.0577 -56.9994,-17.8039 -58.8738,-36.7232 -0.7384,-7.4528 1.3827,-17.2746 4.7134,-21.8262 5.3365,-7.2926 5.8502,-6.1192 4.3247,9.8775 -1.4898,15.6224 -0.023,19.2721 10.5191,26.1798 19.2723,12.6277 49.6851,15.1509 121.032,10.0416 36.4095,-2.6074 66.9224,-5.3744 67.8062,-6.149 0.8839,-0.7746 -1.6842,-6.1072 -5.7068,-11.8503 -10.5354,-15.0414 -9.0226,-29.944 4.4024,-43.369 9.3775,-9.3775 14.531,-11.1534 25.81633,-8.8963 13.90982,2.782 28.31041,11.492 24.80148,15.0009 -0.99169,0.9917 -7.20472,-0.658 -13.80672,-3.6661 -25.78569,-11.7487 -44.03159,11.3634 -29.86629,37.8316 4.9647,9.2766 4.9647,9.2766 11.6726,-0.3001 8.51025,-12.1502 17.32079,-12.6551 9.76715,-0.5598 -3.65407,5.8511 -4.06839,10.5615 -1.18004,13.4162 5.1091,5.0495 86.74192,19.8018 114.05787,20.6119 10.06357,0.2985 23.36108,4.0894 29.54998,8.4243 7.11546,4.9839 19.88174,7.8816 34.72279,7.8816 20.99748,0 26.72824,-2.405 54.39377,-22.8273 17.00796,-12.555 33.72446,-22.8273 37.14774,-22.8273 8.04882,0 24.48605,16.4347 24.48605,24.4823 0,3.4212 -6.05605,13.8409 -13.4579,23.1549 -9.3624,11.7811 -15.69201,27.6023 -20.79939,51.98929 -4.03784,19.2801 -8.42132,40.1909 -9.74102,46.4684 -2.39951,11.4136 -2.39951,11.4136 8.24437,1.6754 13.82459,-12.6484 37.46941,-24.5027 48.87331,-24.5027 14.86543,0 35.40189,20.9738 41.23035,42.1083 2.96162,10.739 6.8393,35.5665 8.61713,55.1723 l 3.2324,35.647 24.61051,-34.4524 c 21.93957,-30.7133 26.15112,-34.3988 38.80645,-33.9589 7.80777,0.2713 22.41379,-2.7441 32.45781,-6.701 10.04403,-3.957 24.8176,-7.2846 32.83018,-7.3948 19.58657,-0.2694 22.2823,-6.6159 7.68682,-18.0967 -21.10281,-16.5995 -61.66556,-8.4927 -77.36076,15.4613 -8.9679,13.6867 -26.01818,14.3253 -28.54548,1.0691 -4.75333,-24.9324 46.85245,-56.1432 86.52726,-52.331 15.35106,1.475 26.2601,5.6478 34.23035,13.0932 22.01792,20.5681 26.55695,34.8503 26.68812,83.9756 l 0.12189,45.6547 21.08643,-25.1101 c 11.59751,-13.8105 26.49235,-30.0907 33.09962,-36.1782 8.60997,-7.9326 12.0416,-15.6928 12.11346,-27.3928 0.14774,-24.0544 15.48716,-55.1311 27.2126,-55.1311 13.37791,0 16.34674,11.8526 7.57584,30.2454 -4.12275,8.6455 -7.4959,16.5376 -7.4959,17.5381 0,1.0005 10.37904,-5.1654 23.06455,-13.7022 37.85825,-25.4767 68.42596,-31.0216 87.65054,-15.8996 14.93844,11.7506 18.32035,32.1859 11.06208,66.8428 -5.85493,27.9561 -5.85493,27.9561 15.66315,11.8914 21.51809,-16.0648 21.51809,-16.0648 24.53701,-53.0662 3.7056,-45.4183 14.49937,-111.36629 21.94856,-134.10189 5.69653,-17.3864 14.33051,-22.4615 25.73806,-15.1291 5.51722,3.5463 4.66686,11.6612 -5.62078,53.6385 -11.71087,47.78469 -23.37743,128.92469 -19.14561,133.15649 3.40803,3.408 15.98293,-9.0021 15.98293,-15.7735 0,-3.459 1.92339,-6.2892 4.27424,-6.2892 2.35085,0 16.98873,-16.4356 32.52871,-36.5237 28.194121,-36.4457 42.422851,-44.9648 48.52802,-29.055 3.385019,8.8212 2.286568,10.51 -31.35037,48.2006 -25.91504,29.0381 -25.91504,29.0381 -19.51001,62.653 6.1668,32.3646 16.26146,55.1653 24.4235,55.1653 2.1439,0 8.360101,-10.7859 13.813824,-23.9686 21.355148,-51.6202 24.54892,-57.7631 31.397711,-60.3913 3.897674,-1.4956 10.011381,0.2053 13.586004,3.78 5.622142,5.6221 3.94511,11.9499 -12.425372,46.8836 -20.708905,44.1916 -33.726509,61.0891 -47.062237,61.0891 -15.7729,0 -34.15867,-24.248 -44.69969,-58.952 -10.00691,-32.9455 -10.00691,-32.9455 -20.48707,-23.0999 -12.43693,11.6839 -19.22455,54.3057 -11.7706,73.9111 5.77951,15.2012 -1.48716,21.8152 -12.19902,11.1034 -4.66855,-4.6686 -8.16908,-19.0806 -9.83419,-40.4881 l -2.58538,-33.2391 -24.07475,29.6755 c -21.64843,26.6848 -35.77974,50.7036 -43.83669,74.509 -1.84454,5.4499 -6.35481,7.8068 -13.10517,6.8482 -14.05487,-1.9959 -15.40383,-19.058 -3.82846,-48.4249 14.57667,-36.9812 27.77675,-93.9551 27.77675,-119.8892 0,-23.8018 0,-23.8018 -20.52926,-21.4878 -25.18251,2.8384 -58.9407,28.6432 -69.49063,53.1188 -3.9163,9.0857 -9.18412,21.0425 -11.70631,26.5706 -2.65317,5.8153 -3.30905,22.5127 -1.55627,39.6205 1.92786,18.8171 1.30052,30.6379 -1.72529,32.508 -6.35673,3.9286 -18.16635,-25.2552 -21.45445,-53.018 -1.45346,-12.2724 -3.98323,-22.3135 -5.62164,-22.3135 -4.6975,0 -38.30033,36.3569 -59.0747,63.9165 -28.3284,37.5808 -28.54279,37.7909 -33.50627,32.8274 -2.89551,-2.8955 -2.78046,-7.582 0.32871,-13.3915 5.87621,-10.9797 13.95626,-87.7872 10.91096,-103.7177 -2.06355,-10.7948 -3.98688,-11.586 -27.93535,-11.4927 -48.22935,0.188 -83.14165,26.149 -69.48392,51.6686 6.71283,12.543 28.41153,26.1916 48.01354,30.2006 7.92784,1.6214 14.01305,5.7586 14.01305,9.527 0,17.0647 -80.24394,-2.147 -87.45473,-20.938 -1.40187,-3.6531 -4.18051,-6.6419 -6.17484,-6.6419 -6.14936,0 -23.46877,32.7519 -33.64702,63.6284 -9.1082,27.6302 -15.58728,36.2383 -22.25624,29.5694 z m 1007.84031,-46.2801 c -31.44487,-8.0214 -54.10935,-45.4897 -53.7069,-88.7868 0.31501,-33.875 17.90475,-67.0586 46.57327,-87.8615 33.20381,-24.0939 39.95563,-26.7552 46.8614,-18.4713 6.41311,7.693 6.71178,7.9735 32.34509,30.3727 22.04024,19.2595 33.0521,55.231 25.57761,83.5521 -13.77753,52.2034 -60.14955,90.761 -97.65047,81.1948 z m 50.36293,-43.1115 c 19.93145,-22.0617 25.45576,-35.8956 25.67572,-64.297 0.13057,-16.8682 -2.62437,-25.6203 -11.88815,-37.7658 -16.00296,-20.9809 -29.85089,-24.0481 -50.62038,-11.2118 -37.30492,23.0557 -51.79785,68.8054 -33.22705,104.8874 18.43814,35.8241 42.65323,38.7231 70.05986,8.3872 z"
       id="path502" /></g></svg>
