<?xml version="1.0" encoding="UTF-8" standalone="no"?>
<!-- Created with Inkscape (http://www.inkscape.org/) -->

<svg
   width="16.0px"
   height="16.0px"
   viewBox="0 0 16.0 16.0"
   version="1.1"
   id="SVGRoot"
   sodipodi:docname="StingrayScenicsTM.svg"
   xml:space="preserve"
   inkscape:version="1.2.1 (9c6d41e4, 2022-07-14)"
   inkscape:export-filename="StingrayScenicsTM.png"
   inkscape:export-xdpi="96"
   inkscape:export-ydpi="96"
   xmlns:inkscape="http://www.inkscape.org/namespaces/inkscape"
   xmlns:sodipodi="http://sodipodi.sourceforge.net/DTD/sodipodi-0.dtd"
   xmlns:xlink="http://www.w3.org/1999/xlink"
   xmlns="http://www.w3.org/2000/svg"
   xmlns:svg="http://www.w3.org/2000/svg"><sodipodi:namedview
     id="namedview2494"
     pagecolor="#ffffff"
     bordercolor="#000000"
     borderopacity="0.25"
     inkscape:showpageshadow="2"
     inkscape:pageopacity="0.0"
     inkscape:pagecheckerboard="0"
     inkscape:deskcolor="#d1d1d1"
     inkscape:document-units="px"
     showgrid="true"
     inkscape:zoom="0.29830866"
     inkscape:cx="610.10632"
     inkscape:cy="-1644.2701"
     inkscape:window-width="1149"
     inkscape:window-height="701"
     inkscape:window-x="55"
     inkscape:window-y="108"
     inkscape:window-maximized="0"
     inkscape:current-layer="layer1"><inkscape:grid
       type="xygrid"
       id="grid2980" /></sodipodi:namedview><defs
     id="defs2489"><linearGradient
       inkscape:collect="always"
       id="linearGradient3230"><stop
         style="stop-color:#629415;stop-opacity:1;"
         offset="0.32203391"
         id="stop3226" /><stop
         style="stop-color:#0d330a;stop-opacity:1;"
         offset="1"
         id="stop3228" /></linearGradient><linearGradient
       inkscape:collect="always"
       id="linearGradient3210"><stop
         style="stop-color:#619415;stop-opacity:1;"
         offset="0.05344329"
         id="stop3218" /><stop
         style="stop-color:#0d330a;stop-opacity:1;"
         offset="1"
         id="stop3206" /></linearGradient><linearGradient
       inkscape:collect="always"
       xlink:href="#linearGradient3230"
       id="linearGradient2198"
       x1="-65.032997"
       y1="-1074.5576"
       x2="-65.545685"
       y2="-731.3844"
       gradientUnits="userSpaceOnUse"
       gradientTransform="translate(827.72387,-1033.1064)" /><linearGradient
       inkscape:collect="always"
       xlink:href="#linearGradient3210"
       id="linearGradient3212"
       x1="1023.3306"
       y1="-1787.3335"
       x2="1016.4548"
       y2="-1295.4185"
       gradientUnits="userSpaceOnUse"
       gradientTransform="translate(-202.90313,282.78685)" /></defs><g
     inkscape:label="Layer 1"
     inkscape:groupmode="layer"
     id="layer1"><path
       style="fill:url(#linearGradient2198);fill-opacity:1;stroke-width:3.25095"
       d="m 1247.749,-1763.6803 c -7.3066,-4.3118 -15.464,-20.0763 -15.3647,-29.693 0.1261,-12.2281 14.4524,-43.4829 32.605,-71.1325 17.0006,-25.8952 17.0006,-25.8952 4.0771,-38.0109 -7.1079,-6.6636 -15.6241,-16.7822 -18.9249,-22.4857 -6.0015,-10.3701 -6.0015,-10.3701 -14.7715,-4.1253 -16.1178,11.4768 -51.3894,50.4413 -61.3974,67.8254 -1.4725,2.5578 -4.9342,3.6812 -7.871,2.5542 -4.1366,-1.5874 -4.588,-3.7334 -2.1396,-10.1732 4.5462,-11.9574 9.6237,-57.2771 7.5799,-67.6549 -1.6202,-8.227 -2.9623,-8.9345 -16.8237,-8.8687 -29.9835,0.1421 -54.907,18.9469 -46.3365,34.961 3.7577,7.0213 28.0333,20.2336 37.1763,20.2336 6.9383,0 7.1876,9.2999 0.3202,11.9352 -2.8355,1.0881 -13.3996,0.1333 -23.4758,-2.1216 -33.4785,-7.4922 -49.0609,-32.7185 -32.9007,-53.2629 6.7377,-8.5658 6.7377,-8.5658 -1.7734,-8.5658 -10.8596,0 -24.4703,-13.4795 -24.4703,-24.2343 0,-11.4528 -4.3305,-10.4106 -21.1453,5.0888 -20.9111,19.2751 -24.9726,29.1471 -23.8237,57.9055 0.6828,17.092 -0.2178,24.5245 -3.0873,25.4811 -5.0382,1.6794 -13.7116,-18.3266 -13.7116,-31.6272 0,-10.6964 -4.78162,-12.5837 -14.28173,-5.637 -5.29764,3.8737 -5.44806,6.4326 -1.83199,31.163 4.37472,29.919 2.34723,57.6562 -5.29466,72.4339 -5.52547,10.6851 -21.67082,18.9696 -36.9693,18.9696 -14.26248,0 -41.9721,-11.3759 -52.66625,-21.6215 -7.82177,-7.4937 -9.241,-11.4358 -9.241,-25.6679 0,-14.2505 1.70317,-18.9667 11.1694,-30.9292 11.16942,-14.1148 11.16942,-14.1148 -0.81275,-18.202 -6.59018,-2.248 -16.68286,-9.1884 -22.42818,-15.4231 -10.4461,-11.3359 -10.4461,-11.3359 -23.77275,3.804 -7.32965,8.3269 -17.25817,23.5922 -22.06335,33.9229 -6.64257,14.2808 -10.40663,18.7912 -15.70352,18.8169 -11.63747,0.056 -11.50843,-8.8856 0.67177,-46.5628 6.41773,-19.852 12.51913,-46.2396 13.55865,-58.6392 1.89007,-22.5447 1.89007,-22.5447 -11.93906,-20.6898 -16.6883,2.2383 -42.43691,22.4461 -47.3443,37.1562 -1.79059,5.3673 -5.06949,11.9443 -7.28644,14.6156 -2.21695,2.6712 -3.51682,5.4537 -2.88857,6.1832 0.62824,0.7295 2.05606,10.4696 3.17292,21.6447 1.83864,18.3973 1.45646,20.3184 -4.04225,20.3184 -3.51671,0 -6.85751,-3.0004 -7.93695,-7.1282 -1.8533,-7.087 -1.91114,-7.0776 -9.97679,1.6254 -6.15856,6.6452 -11.19226,8.7537 -20.89779,8.7537 -15.51421,0 -21.89518,-7.9887 -27.42013,-34.329 -3.7001,-17.6402 -3.7001,-17.6402 -23.35219,3.2719 -21.20144,22.5608 -33.07239,28.0408 -45.88687,21.1827 -11.48396,-6.146 -24.15484,-33.7026 -24.15484,-52.5318 0,-10.7303 -1.33634,-15.6164 -4.27112,-15.6164 -3.17139,0 -3.96229,4.8131 -3.07168,18.6929 1.48785,23.1876 -5.7969,36.4443 -25.56991,46.5317 -17.96725,9.1662 -53.13928,7.9979 -66.94987,-2.224 -20.20576,-14.9551 -25.15457,-45.0911 -9.60159,-58.4692 11.60098,-9.9787 20.1718,-9.8687 26.86407,0.345 4.94523,7.5474 4.93239,8.7269 -0.18011,16.5297 -5.1832,7.9105 -5.17559,8.7666 0.13004,14.6292 8.2888,9.159 30.93904,8.4501 42.30213,-1.324 7.67768,-6.6041 8.49306,-9.073 6.50182,-19.687 -3.2065,-17.0922 -21.98636,-34.7685 -46.79691,-44.047 -11.07789,-4.1429 -24.16343,-11.6189 -29.07891,-16.6133 -8.49062,-8.6269 -11.9439,-9.4379 -69.07986,-16.2239 -90.28866,-10.7235 -143.04152,-5.8907 -143.04152,13.1043 0,8.163 13.95923,17.3009 25.9102,16.9611 11.43708,-0.3252 27.91056,-8.5142 30.45234,-15.138 1.05759,-2.756 -0.55255,-6.4273 -3.66973,-8.3673 -4.9855,-3.1027 -4.88846,-3.3566 0.94776,-2.4797 4.46388,0.6708 6.50189,3.47 6.50189,8.9304 0,11.6267 -18.06604,22.8137 -37.05387,22.945 -8.22868,0.057 -17.80096,2.2512 -21.27174,4.8764 -8.26854,6.254 -22.79491,6.0871 -29.21766,-0.3356 -2.80975,-2.8098 -5.10863,-10.1868 -5.10863,-16.3933 0,-11.2847 0,-11.2847 -11.40691,-2.206 -14.07894,11.2053 -22.09783,31.2243 -22.27416,55.607 -0.16456,22.7575 6.57606,36.4309 24.28258,49.2574 19.47701,14.1091 43.17669,18.0773 82.48307,13.8106 17.84629,-1.9372 32.92103,-3.0489 33.49942,-2.4706 2.45375,2.4538 -42.34218,8.2827 -63.65334,8.2827 -41.53966,0 -72.57709,-17.6233 -83.12844,-47.2009 -3.90429,-10.9446 -4.96392,-11.9382 -6.86713,-6.4396 -11.74463,33.9317 -25.44145,50.3896 -41.93592,50.3896 -14.56872,0 -18.28031,-5.1037 -18.28031,-25.1367 0,-29.006 13.38858,-53.2598 28.94961,-52.4432 7.56139,0.3968 7.68442,0.5879 1.18639,1.8431 -10.72824,2.0722 -19.52294,15.2966 -23.76632,35.7368 -5.86367,28.2452 1.33693,38.7347 20.57308,29.9701 11.54299,-5.2593 17.7173,-18.182 28.12825,-58.8717 5.17216,-20.2148 10.33506,-39.1077 11.4731,-41.9843 1.7401,-4.3985 -1.38174,-5.5073 -19.63,-6.9721 -24.73272,-1.9853 -35.51041,-9.5803 -39.10083,-27.554 -1.80342,-9.028 -0.53036,-12.0645 9.09259,-21.6874 17.81333,-17.8133 51.36394,-19.3923 51.36394,-2.4174 0,12.4493 -18.79827,18.4258 -21.92198,6.9696 -1.18189,-4.3345 -0.95118,-4.3345 2.07628,0 2.58089,3.6952 4.75951,4.0327 8.9941,1.3932 13.84209,-8.6279 3.38494,-16.7692 -16.6997,-13.0013 -11.51491,2.1603 -27.71474,16.0015 -27.71474,23.6798 0,2.5758 4.46721,9.1504 9.92712,14.6103 9.5159,9.5159 10.82884,9.8622 31.6967,8.3606 16.77222,-1.207 26.99353,-4.2968 44.52619,-13.4599 23.06147,-12.0527 58.1369,-21.4233 80.57524,-21.5262 11.15207,-0.051 11.99,-0.6458 8.9401,-6.3446 -4.54427,-8.491 -4.25538,-24.0308 0.53581,-28.822 6.0189,-6.0189 21.38561,-4.6219 28.6083,2.6007 8.27635,8.2764 8.80315,22.8605 0.81273,22.5 -3.39866,-0.1533 -4.05308,-0.9168 -1.62547,-1.8964 6.59443,-2.6609 4.66581,-10.3063 -4.03858,-16.0097 -10.83964,-7.1024 -17.90529,-3.8691 -17.90529,8.1935 0,11.7935 6.71989,16.0332 29.73243,18.7587 16.00841,1.8959 16.42525,1.7401 12.91072,-4.8269 -1.99751,-3.7323 -3.55227,-11.6367 -3.45504,-17.5654 0.17685,-10.7792 0.17685,-10.7792 5.68915,3.475 3.0318,7.8398 9.16968,16.6174 13.63973,19.5056 8.09368,5.2297 8.09032,5.2066 -0.81274,-5.5635 -11.29443,-13.6631 -12.40801,-33.526 -2.27738,-40.6218 4.92255,-3.4478 6.13222,-6.7804 4.63155,-12.7595 -1.58409,-6.3115 -0.0916,-9.6183 6.77949,-15.0233 4.84585,-3.8117 11.77642,-6.9304 15.40122,-6.9304 11.82823,0 34.58405,16.1982 45.47501,32.3703 10.66059,15.8301 10.66059,15.8301 18.00233,8.2021 10.72733,-11.1457 36.80455,-18.8517 57.87986,-17.104 31.71373,2.63 46.83521,26.5534 35.51673,56.1903 -6.14689,16.0954 -21.13927,27.5488 -36.31279,27.7411 -8.38399,0.1062 -7.57694,0.9858 7.67568,8.3653 9.72366,4.7045 21.9858,14.2765 28.54835,22.2852 11.50359,14.0386 11.50359,14.0386 21.88627,3.8257 8.07888,-7.9468 12.56447,-17.7197 20.21577,-44.0448 10.60469,-36.4866 16.96501,-44.9539 26.56007,-35.3589 5.12687,5.1269 4.83815,7.3194 -4.59466,34.8925 -10.06525,29.4219 -10.06525,29.4219 10.05385,29.4219 11.06546,0 24.8639,1.3608 30.66316,3.024 9.17923,2.6326 10.5441,2.2462 10.5441,-2.985 0,-10.8229 3.82039,-16.2937 11.37831,-16.2937 10.21654,0 11.59032,5.6436 9.3341,38.345 -1.99744,28.9509 2.25216,62.9779 8.8595,70.9393 5.72339,6.8962 14.72401,-0.1 20.30609,-15.7826 2.71195,-7.6194 5.70189,-25.557 6.64423,-39.8611 2.72937,-41.4295 11.77047,-60.5878 25.20045,-53.4002 6.24213,3.3406 8.24939,14.273 3.19427,17.3973 -1.57219,0.9716 -3.67343,4.8828 -4.66939,8.6914 -1.81088,6.9248 -1.81088,6.9248 5.29673,0.2524 16.82964,-15.7989 49.725,-24.4679 63.9525,-16.8536 9.63287,5.1553 13.90103,22.9798 10.27146,42.895 -1.73136,9.4998 -2.83174,17.596 -2.44529,17.9916 2.82776,2.8946 21.44685,-15.6208 24.66907,-24.5317 5.29409,-14.6406 24.24153,-35.2658 39.59046,-43.0963 11.66778,-5.9524 37.75934,-7.8955 44.02053,-3.2783 4.42043,3.2599 27.08258,50.359 27.03081,56.1787 -0.0767,8.6195 5.04549,9.698 17.60803,3.7073 10.99828,-5.2447 11.61118,-6.3886 11.78508,-21.9977 0.2777,-24.9237 6.1365,-39.222 16.0712,-39.222 7.6918,0 8.0815,0.8641 7.2709,16.1222 -0.8565,16.1221 -0.8565,16.1221 9.7528,6.1891 16.4741,-15.424 33.456,-27.1877 39.2476,-27.1877 6.0321,0 12.6281,10.4415 10.6329,16.832 -6.4788,20.7509 -3.5541,30.6864 4.0928,13.9034 5.2191,-11.4549 33.494,-24.1612 53.855,-24.2017 14.3152,-0.029 17.1742,1.26 27.9658,12.6044 13.4391,14.1274 16.2313,23.7098 16.2313,55.7037 0,22.0139 0,22.0139 23.0147,-1.0007 23.0147,-23.0147 23.0147,-23.0147 17.5513,-40.384 -4.3456,-13.8157 -4.6494,-18.3498 -1.4854,-22.1622 8.7928,-10.5948 22.6857,-0.9465 22.6899,15.7576 0,13.6637 15.7157,45.8794 30.8809,63.3167 6.6834,7.6845 12.6584,13.465 13.2779,12.8455 0.6195,-0.6195 3.4258,-14.953 6.2362,-31.8521 9.3163,-56.0193 21.4474,-78.5131 34.1126,-63.2525 4.1288,4.9749 3.8637,6.8017 -4.2487,29.2758 -2.5817,7.152 -5.7263,20.1666 -6.9878,28.9212 -2.2939,15.9174 -2.2939,15.9174 14.4466,3.6287 12.9875,-9.5336 17.6032,-11.4135 20.5889,-8.3854 4.0555,4.1133 0.8472,7.6307 -29.8503,32.727 -13.5541,11.0809 -14.4202,12.9921 -33.1362,73.1187 -23.0416,74.0233 -30.0947,85.674 -46.1355,76.2079 z m 18.653,-52.9509 c 4.253,-15.4583 7.0369,-28.1059 6.1865,-28.1059 -3.9792,0 -20.7709,41.9141 -20.7732,51.8526 0,17.5733 5.8327,8.0713 14.5867,-23.7467 z m -308.16818,-0.1996 c 8.93632,-7.695 9.11952,-8.5509 9.02927,-42.1919 -0.0579,-21.6168 -1.4906,-35.736 -3.86703,-38.1124 -2.8659,-2.8659 -9.28281,0.3083 -26.64828,13.1818 -41.05455,30.435 -48.17894,45.2599 -28.72232,59.7672 21.57054,16.0836 37.38195,18.3998 50.20836,7.3553 z m -302.1565,-101.3841 c 20.99336,-22.0259 23.56934,-26.1127 23.56934,-37.3933 0,-12.6647 0,-12.6647 -25.79591,-12.6647 -14.18777,0 -29.54848,1.4267 -34.13491,3.1704 -7.89836,3.003 -8.33835,4.4202 -8.32684,26.8203 0.013,24.3881 7.75276,44.7716 17.00751,44.7884 2.26132,0 14.71767,-11.1204 27.68081,-24.7211 z m 282.49561,6.6597 c 9.57217,-6.3537 17.40395,-12.8819 17.40395,-14.5073 0,-7.1342 -13.62828,-38.1702 -20.52623,-46.7449 -6.74414,-8.3835 -8.89567,-9.1623 -19.70892,-7.1337 -14.6918,2.7562 -39.82864,26.4227 -34.66836,32.6405 2.16054,2.6033 1.52002,6.2479 -1.97507,11.2378 -6.74435,9.6289 -2.0597,20.6113 12.60614,29.5531 15.38962,9.3831 27.01662,8.1314 46.86849,-5.0455 z m 189.70397,-46.9649 c 9.8341,-3.4593 21.9032,-6.3374 26.8203,-6.3958 10.8113,-0.1283 11.4698,-4.4674 1.7148,-11.3001 -8.4823,-5.9412 -22.7982,-6.5575 -32.8125,-1.4126 -10.606,5.449 -24.9905,19.7141 -23.0482,22.8569 2.4557,3.9733 7.24,3.317 27.3256,-3.7484 z m -856.25454,-16.852 c 1.0413,-1.6849 -0.33045,-5.5313 -3.04832,-8.5477 -2.71788,-3.0164 -6.00948,-9.7617 -7.31466,-14.9897 -2.37308,-9.5054 -2.37308,-9.5054 -10.00612,-0.6314 -9.41423,10.9447 -9.72547,19.6809 -0.92085,25.8478 6.81223,4.7715 17.84087,3.9017 21.28995,-1.679 z m 189.81108,-50.1087 c 0,-9.8446 -26.72214,-56.529 -38.0507,-66.4756 -15.02499,-13.1921 -31.29944,-12.7174 -32.87313,0.9588 -0.80955,7.0357 0.70552,9.5978 7.11697,12.0354 15.31952,5.8245 20.46969,29.7404 6.91534,32.1128 -6.29958,1.1026 -6.31206,0.9945 -0.40113,-3.4751 5.04985,-3.8185 5.45703,-5.816 2.36369,-11.5959 -5.82295,-10.8803 -15.14316,-14.6179 -21.24244,-8.5186 -16.78569,16.7857 10.20253,41.3631 51.3034,46.7206 10.99537,1.4332 21.08878,2.7914 22.42979,3.0181 1.34102,0.2267 2.43821,-1.9245 2.43821,-4.7805 z m 80.04005,-5.6825 c 10.15933,-11.8109 9.86814,-22.7356 -0.83035,-31.151 -10.58658,-8.3274 -24.66482,-8.4818 -42.32241,-0.4642 -15.72934,7.1421 -19.35118,15.2939 -13.99961,31.5093 3.8526,11.6735 3.8526,11.6735 26.63476,10.3862 20.0417,-1.1325 23.71271,-2.3691 30.51761,-10.2803 z m 142.96744,14.9859 c -1.06885,-1.0689 -1.94332,-10.9289 -1.94332,-21.9113 0,-21.9735 5.04988,-32.3396 14.84413,-30.471 6.96267,1.3284 10.26073,13.8273 5.27864,20.0049 -1.72312,2.1366 -4.13903,9.9876 -5.3687,17.4465 -2.06216,12.5088 -8.14421,19.5974 -12.81075,14.9309 z"
       id="path4486" /><path
       style="fill:url(#linearGradient3212);fill-opacity:1;stroke-width:2.76648"
       d="m 688.50945,-1018.1514 c -30.882,-11.148 -48.7157,-25.1053 -62.2068,-48.6852 -12.3348,-21.559 -11.8484,-42.3764 1.5876,-67.9451 12.1577,-23.1363 35.1403,-45.7251 59.4027,-58.3849 17.1102,-8.9279 19.0201,-9.2929 48.24674,-9.2212 33.3925,0.082 44.0959,2.9297 89.606,23.8413 12.7656,5.8658 23.6073,10.6651 24.0923,10.6651 0.4852,0 -2.8716,-6.0385 -7.4595,-13.419 -9.3507,-15.042 -8.9738,-25.1648 1.2025,-32.2925 12.1698,-8.5241 43.3255,-2.211 54.2905,11.001 3.0701,3.6993 1.6611,3.5627 -8.5949,-0.8335 -17.5919,-7.5408 -28.0443,-9.3372 -36.2273,-6.226 -10.0808,3.8327 -11.9661,12.3014 -5.1823,23.2779 8.0434,13.0144 25.1625,24.1023 58.4113,37.8325 15.9765,6.5975 34.0278,14.7911 40.114,18.2081 9.7394,5.4679 37.9752,14.5469 63.98871,20.5751 8.6592,2.0066 8.6592,2.0066 2.0749,-7.696 -8.0875,-11.9175 -8.562,-25.6485 -1.1192,-32.3842 8.4588,-7.655 27.3281,-4.3333 46.069,8.1099 18.8358,12.5063 18.1168,16.0923 -0.8611,4.2949 -24.0035,-14.9213 -42.3736,-13.9766 -42.3736,2.1793 0,9.3063 20.9699,29.5242 33.1488,31.96 15.3169,3.0634 50.2516,1.9154 70.5943,-2.3198 19.002,-3.956 64.6574,-24.5663 84.8742,-38.3149 11.2835,-7.6734 27.8115,-15.4219 54.6704,-25.63 31.7674,-12.0736 46.3365,-27.9984 54.396,-59.4573 3.5748,-13.954 3.7521,-19.9469 1.0622,-35.8944 -1.7759,-10.5291 -4.1944,-19.7403 -5.3742,-20.4695 -1.1798,-0.7292 -2.9727,5.7155 -3.9842,14.3217 -2.9966,25.496 -16.8817,42.3141 -34.9349,42.3141 -12.0557,0 -34.1746,-20.775 -32.5138,-30.5382 1.1584,-6.8093 1.1584,-6.8093 4.22,0.4554 3.9188,9.2994 25.7295,20.2763 35.4438,17.8381 9.8858,-2.4812 12.9641,-13.1391 11.6449,-40.3185 -1.2198,-25.1324 -6.2772,-38.6804 -21.8091,-58.4227 -10.047,-12.7703 -32.3954,-22.7877 -50.8685,-22.8009 -14.6103,-0.011 -46.1378,10.1359 -51.4741,16.5657 -1.7324,2.0874 -4.7106,3.7953 -6.6182,3.7953 -2.2085,0 -3.9286,5.5492 -4.7352,15.2769 -1.878,22.6459 -16.3038,36.3737 -44.9752,42.7991 -23.9935,5.377 -44.6391,-4.5212 -47.5667,-22.8051 -1.5262,-9.532 -0.6579,-11.3795 10.6732,-22.7105 8.6548,-8.6548 11.1955,-12.7715 8.5167,-13.7995 -5.9719,-2.2916 -14.439,4.6569 -42.0563,34.5136 -14.108,15.2518 -29.5722,29.7584 -34.3649,32.2368 -16.61581,8.5924 -43.11451,3.413 -56.69461,-11.0815 -6.4796,-6.916 -6.4796,-6.916 -14.119,1.6341 -6.4698,7.2409 -9.6878,8.5805 -21.0171,8.7492 -12.212,0.1819 -13.9351,-0.6206 -19.7762,-9.2097 -6.3789,-9.3799 -9.6827,-19.4061 -13.3085,-40.3877 -1.9123,-11.066 -1.9123,-11.066 -17.3309,5.4755 -18.068,19.3838 -35.4984,45.4111 -37.9808,56.7137 -2.2806,10.3836 -8.008,14.9123 -16.2448,12.845 -9.6192,-2.4143 -10.2922,-10.0343 -2.7633,-31.2878 22.5458,-63.6457 29.102,-108.7587 15.8058,-108.7587 -19.3627,0 -56.5224,27.9746 -60.6344,45.6469 -1.0622,4.5647 -3.8251,10.479 -6.1401,13.1429 -3.6166,4.162 -3.7577,8.0337 -1.0023,27.5172 3.2562,23.0249 1.853,29.3217 -5.873,26.3569 -4.4888,-1.7225 -13.07104,-29.9503 -13.07104,-42.9918 0,-13.5979 -5.8581,-10.9816 -26.1319,11.6708 -20.8903,23.3412 -32.2767,29.8879 -51.7212,29.7372 -20.4959,-0.1587 -35.782,-10.9437 -43.7286,-30.8522 -2.1257,-5.3255 -4.2332,-10.1621 -4.6833,-10.7481 -0.4502,-0.5859 -9.7523,8.5009 -20.6715,20.193 -22.5616,24.1587 -32.328,30.2344 -48.0986,29.9222 -36.6291,-0.7251 -51.3872,-25.0174 -45.6673,-75.1693 6.4035,-56.1454 24.2198,-80.8314 55.0209,-76.2365 26.9257,4.0168 42.9043,16.6882 36.3908,28.8588 -3.8396,7.1742 -9.8143,7.2212 -23.6144,0.1855 -29.8906,-15.2391 -44.6948,2.0466 -47.6925,55.6868 -0.8187,14.6513 -0.7322,29.6524 0.1923,33.3359 1.7512,6.9775 16.9373,16.1036 26.7968,16.1036 9.049,0 63.5839,-58.7205 63.5839,-68.4639 0,-11.3144 8.9587,-34.4543 16.794,-43.3783 4.5415,-5.1724 14.5062,-13.4144 22.144,-18.3155 12.6771,-8.1348 15.2962,-8.7833 30.0645,-7.4442 10.3757,0.9408 22.9791,4.7951 35.1418,10.7467 15.7093,7.6871 19.112,10.5609 19.8257,16.7446 0.7215,6.2515 -0.8835,8.3551 -9.8743,12.9419 -5.9048,3.0124 -17.4968,10.7098 -25.7599,17.1055 -19.4248,15.0345 -57.9045,52.7444 -57.9045,56.746 0,5.0096 9.3926,12.0549 18.4996,13.8763 12.042,2.4084 18.9259,-2.1032 50.389,-33.0251 27.7273,-27.2503 27.7273,-27.2503 30.287,-45.7218 1.40794,-10.1593 4.88874,-23.4175 7.73514,-29.4625 4.2718,-9.0724 6.5677,-10.9911 13.1515,-10.9911 12.0644,0 15.223,7.2791 8.685,20.0156 -2.9406,5.7286 -5.9366,11.5752 -6.6578,12.9925 -0.7212,1.4172 2.9478,-0.6192 8.1533,-4.5254 25.2871,-18.9753 55.8906,-26.6216 69.8755,-17.4583 12.3982,8.1236 15.0868,26.6771 8.5205,58.7975 -1.8315,8.9593 -1.8315,8.9593 15.9002,-2.7665 17.7319,-11.7258 17.7319,-11.7258 16.587,-34.6347 -0.957,-19.1502 -0.336,-23.8028 3.785,-28.3565 5.5921,-6.1792 13.7241,-7.128 17.0499,-1.9894 1.231,1.902 2.2381,24.6217 2.2381,50.4883 0,39.7756 0.7932,48.8439 5.1418,58.7878 2.8279,6.4666 6.3333,11.7575 7.7896,11.7575 11.9519,0 23.1656,-22.2633 27.1861,-53.9739 7.0328,-55.4688 24.5214,-79.2103 54.9989,-74.6637 26.92561,4.0168 42.90421,16.6882 36.39071,28.8588 -3.8396,7.1742 -9.8142,7.2212 -23.6144,0.1855 -29.89061,-15.2391 -44.69471,2.0466 -47.69241,55.6868 -1.8902,33.8233 -0.5662,38.8698 11.7359,44.7363 16.0722,7.6643 20.1095,6.2108 38.40391,-13.8259 9.3049,-10.191 24.0894,-25.8097 32.8545,-34.7083 13.3461,-13.5495 15.482,-17.0284 13.1407,-21.4031 -1.5376,-2.8731 -2.7957,-9.8556 -2.7957,-15.5167 0,-20.3935 32.6342,-40.3952 57.7214,-35.3777 12.7521,2.5504 27.4873,16.3828 30.882,28.9899 3.4852,12.9431 1.6351,20.934 -5.3606,23.1544 -8.4715,2.6888 -13.8921,-1.3958 -16.9569,-12.7778 -3.4558,-12.8337 -11.6737,-17.7106 -25.4795,-15.1206 -14.3671,2.6953 -19.8306,7.7787 -17.6591,16.4305 3.3652,13.4081 14.6634,16.472 55.4623,15.0405 32.8842,-1.1538 37.7196,-2.0054 52.7984,-9.2982 14.3859,-6.9577 19.7338,-8.0183 40.1139,-7.9555 20.7492,0.064 25.793,1.1446 42.8805,9.1879 14.3099,6.7358 21.9974,12.5116 29.4478,22.1248 13.0868,16.8859 29.0275,45.9974 33.6729,61.4948 5.4359,18.1346 2.0111,63.234 -6.2297,82.0365 -7.1371,16.2842 -25.7444,34.9891 -41.1508,41.3666 -5.614,2.3239 -15.4298,6.5862 -21.813,9.4718 -6.3831,2.8854 -13.2977,5.2463 -15.3656,5.2463 -2.068,0 -9.3788,3.5634 -16.2462,7.9186 -14.8262,9.4025 -24.4754,28.6789 -26.4295,52.7986 -2.3586,29.1121 15.5174,47.1391 42.702,43.0626 18.7336,-2.8093 33.8612,-18.2927 33.8612,-34.6573 0,-7.0816 -2.2899,-15.4617 -5.7586,-21.0741 -6.8077,-11.0152 -2.6925,-12.517 5.5579,-2.0284 12.9945,16.5199 3.6046,48.7661 -17.8378,61.2575 -8.826,5.1416 -13.8283,6.159 -25.2222,5.1297 -31.6552,-2.8595 -44.5579,-20.0908 -41.5757,-55.5237 0.9042,-10.7448 2.4709,-22.3931 3.4816,-25.8852 1.8374,-6.3493 1.8374,-6.3493 -8.0826,-1.6187 -11.9107,5.6798 -17.9958,18.799 -20.334,43.8395 -2.0074,21.496 5.3848,40.5683 18.5524,47.8673 15.9994,8.8685 19.0583,12.0077 8.2246,8.4404 -28.5778,-9.4102 -39.5722,-32.4778 -33.3048,-69.8771 1.5142,-9.0357 2.4233,-16.7583 2.0203,-17.1614 -0.4031,-0.403 -9.4017,2.5702 -19.9968,6.6071 -17.7091,6.7474 -22.6135,7.3441 -60.7612,7.3921 -29.9294,0.037 -47.2811,-1.2973 -62.2458,-4.789 -37.62401,-8.7789 -86.59871,-16.2583 -95.19751,-14.5385 -4.6502,0.93 -13.1171,4.7762 -18.8152,8.5471 -12.5128,8.2805 -14.3329,8.5243 -10.5254,1.4099 3.74,-6.9882 24.8167,-19.381 33.4874,-19.6899 13.5795,-0.4839 -6.1712,-4.396 -32.6522,-6.4676 -34.2238,-2.6773 -49.7548,-0.084 -59.8291,9.9905 -7.39,7.39 -7.9134,9.2564 -6.8232,24.3289 1.2751,17.6269 -1.4372,19.0133 -7.7304,3.9516 -6.4774,-15.5025 -4.957,-23.0865 6.8873,-34.3537 11.5677,-11.0041 27.6256,-16.5686 47.8747,-16.5899 11.206,-0.011 9.2792,-1.2609 -32.3479,-20.9703 -62.9969,-29.8275 -80.1788,-35.3481 -110.6593,-35.5547 -21.98494,-0.1491 -26.78654,0.7572 -41.03534,7.7453 -21.4621,10.5258 -49.6121,37.1759 -58.5373,55.4184 -9.2791,18.966 -11.3874,38.3238 -5.8462,53.6788 9.6112,26.6331 38.6907,50.0597 73.3797,59.115 12.0808,3.1537 15.4142,4.7729 9.9073,4.8125 -4.5648,0.033 -14.5241,-2.1873 -22.1319,-4.9337 z m 431.41215,-290.7223 c 9.7832,-6.0464 17.0365,-17.3029 14.1544,-21.9664 -2.7316,-4.4198 -22.244,-3.7037 -34.1036,1.2515 -11.7284,4.9005 -22.7723,14.3953 -22.7723,19.5781 0,10.4725 26.4761,11.177 42.7215,1.1368 z m -462.23285,-57.804 c 30.0188,-30.0972 32.1864,-32.9508 26.2384,-34.5433 -9.5017,-2.5439 -21.7114,-2.1613 -33.2431,1.0416 -7.5074,2.0851 -12.3837,6.1783 -18.6738,15.6745 -9.2246,13.9267 -10.6854,20.2033 -4.7021,20.2033 2.096,0 5.4031,1.9184 7.3491,4.2631 2.9735,3.5829 2.1448,5.7004 -5.1943,13.2724 -8.6603,8.9352 -10.6916,12.8958 -6.6142,12.8958 1.165,0 16.843,-14.7633 34.84,-32.8074 z m -258.2197,79.5165 c -15.4651,-6.1703 -25.1343,-21.0541 -25.8601,-39.8059 -0.5032,-13.002 5.3953,-22.152 17.1855,-26.6596 14.7163,-5.6262 26.19,13.5144 15.3088,25.5381 -4.0108,4.4319 -3.8958,5.3131 1.3832,10.5921 7.5737,7.5736 26.0592,7.697 38.2642,0.2554 11.5087,-7.017 12.186,-19.4488 1.8862,-34.6263 -10.0469,-14.8049 -16.5355,-19.536 -38.4457,-28.0325 -11.1948,-4.3412 -23.6738,-11.7046 -29.7806,-17.5727 -8.2728,-7.9492 -14.7745,-11.0974 -30.5276,-14.7817 -26.326,-6.1572 -31.4615,-5.9046 -46.8846,2.3057 -15.8966,8.4625 -18.4431,8.6823 -11.5994,1.0014 9.3041,-10.4422 22.7378,-14.2157 49.0418,-13.7759 28.5796,0.4779 28.0508,2.3241 9.5895,-33.4821 -14.2373,-27.6138 -29.0837,-41.5271 -43.0585,-40.3521 -8.1498,0.6851 -10.3949,2.1745 -11.704,7.764 -1.3585,5.8001 -1.9202,6.1349 -3.4806,2.0749 -2.9142,-7.5828 0.3211,-12.3851 11.2916,-16.7607 16.3209,-6.5096 35.4811,3.6963 52.2019,27.8059 9.2853,13.3887 10.3342,14.1098 13.6455,9.3821 9.1919,-13.1231 52.004,-23.4365 71.1113,-17.1305 16.1394,5.3265 24.0057,17.0132 23.9934,35.6462 -0.016,24.2571 -10.3924,37.3893 -34.0243,43.0607 -7.6267,1.8303 -7.5142,1.9854 6.9085,9.5199 27.9624,14.6078 50.1799,51.6627 44.7536,74.6412 -2.6856,11.3727 -13.9991,24.8619 -25.977,30.9725 -11.8661,6.0537 -42.7259,7.406 -55.2226,2.4199 z m 30.3712,-137.3157 c 11.1053,-5.5495 17.861,-17.4266 15.4274,-27.1226 -1.8522,-7.38 -14.3358,-15.0619 -24.4767,-15.0619 -9.2637,0 -31.4737,7.9457 -35.3857,12.6593 -4.2456,5.1156 -4.1796,15.5595 0.1642,26.0468 3.2562,7.861 4.3142,8.3238 19.0197,8.3197 9.2818,0 19.4814,-1.9581 25.2511,-4.8413 z m 447.83534,-16.5946 c -1.7033,-4.3669 -2.2853,-15.2136 -1.3663,-25.4616 2.4068,-26.8371 14.2482,-35.6943 24.9784,-18.6835 2.1351,3.3848 1.7055,6.6053 -1.6362,12.2642 -2.4923,4.2208 -5.432,12.6539 -6.5327,18.7401 -3.8353,21.2083 -10.188,26.6138 -15.4432,13.1408 z"
       id="path4550" /></g></svg>
